<mxfile host="Electron" modified="2023-06-13T06:34:30.423Z" agent="Mozilla/5.0 (Windows NT 10.0; Win64; x64) AppleWebKit/537.36 (KHTML, like Gecko) draw.io/21.2.1 Chrome/112.0.5615.87 Electron/24.1.2 Safari/537.36" etag="1Sja6SDs_BY3GOgaxhYA" version="21.2.1" type="device">
  <diagram name="페이지-1" id="OyLycrWChtEbTH6sI2ZJ">
    <mxGraphModel dx="4780" dy="3213" grid="1" gridSize="10" guides="1" tooltips="1" connect="1" arrows="1" fold="1" page="1" pageScale="1" pageWidth="2339" pageHeight="3300" math="0" shadow="0">
      <root>
        <mxCell id="0" />
        <mxCell id="1" parent="0" />
        <mxCell id="o7uIKfqhR9M-1sjR024_-1" value="&lt;font style=&quot;font-size: 18px;&quot;&gt;Start&lt;/font&gt;" style="ellipse;whiteSpace=wrap;html=1;" parent="1" vertex="1">
          <mxGeometry x="92.5" y="40" width="120" height="80" as="geometry" />
        </mxCell>
        <mxCell id="o7uIKfqhR9M-1sjR024_-5" value="&lt;font style=&quot;font-size: 18px;&quot;&gt;Operator_Stack&lt;br&gt;Postfix_Queue&lt;br&gt;Operand_Stack&lt;br&gt;선언&lt;br&gt;&lt;/font&gt;" style="rounded=0;whiteSpace=wrap;html=1;" parent="1" vertex="1">
          <mxGeometry x="80" y="150" width="145" height="100" as="geometry" />
        </mxCell>
        <mxCell id="o7uIKfqhR9M-1sjR024_-6" value="&lt;font style=&quot;font-size: 18px;&quot;&gt;Enque(&amp;amp;Postfix_Queue, letter)&lt;br&gt;&lt;/font&gt;" style="rounded=0;whiteSpace=wrap;html=1;" parent="1" vertex="1">
          <mxGeometry x="373" y="1000" width="225" height="70" as="geometry" />
        </mxCell>
        <mxCell id="o7uIKfqhR9M-1sjR024_-10" value="" style="endArrow=classic;html=1;rounded=0;exitX=0.5;exitY=1;exitDx=0;exitDy=0;entryX=0.5;entryY=0;entryDx=0;entryDy=0;" parent="1" source="o7uIKfqhR9M-1sjR024_-1" target="o7uIKfqhR9M-1sjR024_-5" edge="1">
          <mxGeometry width="50" height="50" relative="1" as="geometry">
            <mxPoint x="472.5" y="210" as="sourcePoint" />
            <mxPoint x="522.5" y="160" as="targetPoint" />
          </mxGeometry>
        </mxCell>
        <mxCell id="o7uIKfqhR9M-1sjR024_-26" value="&lt;font style=&quot;font-size: 18px;&quot;&gt;Push(&amp;amp;Operator_Stack&lt;br&gt;,letter)&lt;/font&gt;" style="rounded=0;whiteSpace=wrap;html=1;" parent="1" vertex="1">
          <mxGeometry x="613" y="648" width="220" height="58" as="geometry" />
        </mxCell>
        <mxCell id="_lU7bbWi_hCYTLzxq-Pw-1" value="&lt;font style=&quot;font-size: 18px;&quot;&gt;파일에서 문자열을 &lt;br&gt;가져와 clac에 대입&lt;br&gt;&lt;/font&gt;" style="shape=parallelogram;perimeter=parallelogramPerimeter;whiteSpace=wrap;html=1;fixedSize=1;" parent="1" vertex="1">
          <mxGeometry x="57.5" y="290" width="190" height="80" as="geometry" />
        </mxCell>
        <mxCell id="_lU7bbWi_hCYTLzxq-Pw-2" value="&lt;font style=&quot;font-size: 18px;&quot;&gt;스택과 큐 모두 &lt;br&gt;초기화&lt;br&gt;&lt;/font&gt;" style="rounded=0;whiteSpace=wrap;html=1;" parent="1" vertex="1">
          <mxGeometry x="77.5" y="410" width="150" height="70" as="geometry" />
        </mxCell>
        <mxCell id="_lU7bbWi_hCYTLzxq-Pw-3" value="&lt;font style=&quot;font-size: 18px;&quot;&gt;char letter&lt;br&gt;bool overTwoNum = false&lt;br&gt;&lt;/font&gt;" style="rounded=0;whiteSpace=wrap;html=1;" parent="1" vertex="1">
          <mxGeometry x="73.75" y="510" width="157.5" height="100" as="geometry" />
        </mxCell>
        <mxCell id="_lU7bbWi_hCYTLzxq-Pw-4" value="&lt;font style=&quot;font-size: 18px;&quot;&gt;int i: 0,1,clac.size()&lt;/font&gt;" style="shape=loopLimit;whiteSpace=wrap;html=1;" parent="1" vertex="1">
          <mxGeometry x="395.25" y="179" width="177.5" height="60" as="geometry" />
        </mxCell>
        <mxCell id="_lU7bbWi_hCYTLzxq-Pw-5" value="" style="shape=loopLimit;whiteSpace=wrap;html=1;rotation=-180;" parent="1" vertex="1">
          <mxGeometry x="396.75" y="1320" width="177.5" height="60" as="geometry" />
        </mxCell>
        <mxCell id="_lU7bbWi_hCYTLzxq-Pw-6" value="&lt;font style=&quot;font-size: 18px;&quot;&gt;letter=clac[i]&lt;/font&gt;" style="rounded=0;whiteSpace=wrap;html=1;" parent="1" vertex="1">
          <mxGeometry x="424" y="270" width="120" height="60" as="geometry" />
        </mxCell>
        <mxCell id="_lU7bbWi_hCYTLzxq-Pw-7" value="&lt;span style=&quot;font-size: 18px;&quot;&gt;letter이 &lt;br&gt;숫자인가?&lt;/span&gt;" style="rhombus;whiteSpace=wrap;html=1;" parent="1" vertex="1">
          <mxGeometry x="404.25" y="350" width="162.5" height="80" as="geometry" />
        </mxCell>
        <mxCell id="_lU7bbWi_hCYTLzxq-Pw-8" value="&lt;font style=&quot;font-size: 18px;&quot;&gt;char isNum&lt;br&gt;=clac[0]&lt;/font&gt;" style="rounded=0;whiteSpace=wrap;html=1;" parent="1" vertex="1">
          <mxGeometry x="413" y="460" width="145" height="80" as="geometry" />
        </mxCell>
        <mxCell id="_lU7bbWi_hCYTLzxq-Pw-9" value="&lt;span style=&quot;font-size: 18px;&quot;&gt;i&amp;gt;=1&lt;/span&gt;" style="rhombus;whiteSpace=wrap;html=1;" parent="1" vertex="1">
          <mxGeometry x="404.25" y="558" width="162.5" height="80" as="geometry" />
        </mxCell>
        <mxCell id="_lU7bbWi_hCYTLzxq-Pw-10" value="&lt;font style=&quot;font-size: 18px;&quot;&gt;&amp;nbsp;isNum&lt;br&gt;=clac[i-1]&lt;/font&gt;" style="rounded=0;whiteSpace=wrap;html=1;" parent="1" vertex="1">
          <mxGeometry x="413" y="665" width="145" height="80" as="geometry" />
        </mxCell>
        <mxCell id="_lU7bbWi_hCYTLzxq-Pw-11" value="&lt;span style=&quot;font-size: 18px;&quot;&gt;isNum이 &lt;br&gt;숫자인가?&lt;/span&gt;" style="rhombus;whiteSpace=wrap;html=1;" parent="1" vertex="1">
          <mxGeometry x="404.25" y="770" width="162.5" height="80" as="geometry" />
        </mxCell>
        <mxCell id="_lU7bbWi_hCYTLzxq-Pw-12" value="&lt;font style=&quot;font-size: 18px;&quot;&gt;clac문자열을&amp;nbsp;&lt;br&gt;연산에 맞게&lt;br&gt;PostFix_Queue에 넣는다.&amp;nbsp;&lt;/font&gt;" style="shape=process;whiteSpace=wrap;html=1;backgroundOutline=1;" parent="1" vertex="1">
          <mxGeometry x="17.5" y="660" width="270" height="90" as="geometry" />
        </mxCell>
        <mxCell id="_lU7bbWi_hCYTLzxq-Pw-13" value="&lt;font style=&quot;font-size: 18px;&quot;&gt;clac문자열을&amp;nbsp;&lt;br&gt;연산에 맞게&lt;br&gt;PostFix_Queue에 넣는다.&amp;nbsp;&lt;/font&gt;" style="shape=process;whiteSpace=wrap;html=1;backgroundOutline=1;" parent="1" vertex="1">
          <mxGeometry x="349" y="50" width="270" height="90" as="geometry" />
        </mxCell>
        <mxCell id="_lU7bbWi_hCYTLzxq-Pw-14" value="&lt;font style=&quot;font-size: 18px;&quot;&gt;PostFix_Queue을 Operand_Stack에 &lt;br&gt;넣으면서 계산.&amp;nbsp;&lt;/font&gt;" style="shape=process;whiteSpace=wrap;html=1;backgroundOutline=1;" parent="1" vertex="1">
          <mxGeometry x="17.5" y="800" width="270" height="90" as="geometry" />
        </mxCell>
        <mxCell id="_lU7bbWi_hCYTLzxq-Pw-15" value="&lt;font style=&quot;font-size: 18px;&quot;&gt;계산 결과 값 출력&lt;/font&gt;" style="shape=document;whiteSpace=wrap;html=1;boundedLbl=1;" parent="1" vertex="1">
          <mxGeometry x="65" y="940" width="175" height="100" as="geometry" />
        </mxCell>
        <mxCell id="_lU7bbWi_hCYTLzxq-Pw-16" value="&lt;span style=&quot;font-size: 18px;&quot;&gt;End&lt;/span&gt;" style="ellipse;whiteSpace=wrap;html=1;" parent="1" vertex="1">
          <mxGeometry x="103" y="1180" width="120" height="80" as="geometry" />
        </mxCell>
        <mxCell id="_lU7bbWi_hCYTLzxq-Pw-17" value="" style="endArrow=classic;html=1;rounded=0;exitX=0.5;exitY=1;exitDx=0;exitDy=0;entryX=0.5;entryY=0;entryDx=0;entryDy=0;" parent="1" source="o7uIKfqhR9M-1sjR024_-5" target="_lU7bbWi_hCYTLzxq-Pw-1" edge="1">
          <mxGeometry width="50" height="50" relative="1" as="geometry">
            <mxPoint x="163" y="130" as="sourcePoint" />
            <mxPoint x="163" y="160" as="targetPoint" />
          </mxGeometry>
        </mxCell>
        <mxCell id="_lU7bbWi_hCYTLzxq-Pw-18" value="" style="endArrow=classic;html=1;rounded=0;exitX=0.5;exitY=1;exitDx=0;exitDy=0;entryX=0.5;entryY=0;entryDx=0;entryDy=0;" parent="1" source="_lU7bbWi_hCYTLzxq-Pw-1" target="_lU7bbWi_hCYTLzxq-Pw-2" edge="1">
          <mxGeometry width="50" height="50" relative="1" as="geometry">
            <mxPoint x="173" y="140" as="sourcePoint" />
            <mxPoint x="173" y="170" as="targetPoint" />
          </mxGeometry>
        </mxCell>
        <mxCell id="_lU7bbWi_hCYTLzxq-Pw-19" value="" style="endArrow=classic;html=1;rounded=0;exitX=0.5;exitY=1;exitDx=0;exitDy=0;entryX=0.5;entryY=0;entryDx=0;entryDy=0;" parent="1" source="_lU7bbWi_hCYTLzxq-Pw-2" target="_lU7bbWi_hCYTLzxq-Pw-3" edge="1">
          <mxGeometry width="50" height="50" relative="1" as="geometry">
            <mxPoint x="183" y="150" as="sourcePoint" />
            <mxPoint x="183" y="180" as="targetPoint" />
          </mxGeometry>
        </mxCell>
        <mxCell id="_lU7bbWi_hCYTLzxq-Pw-20" value="" style="endArrow=classic;html=1;rounded=0;exitX=0.5;exitY=1;exitDx=0;exitDy=0;entryX=0.5;entryY=0;entryDx=0;entryDy=0;" parent="1" source="_lU7bbWi_hCYTLzxq-Pw-3" target="_lU7bbWi_hCYTLzxq-Pw-12" edge="1">
          <mxGeometry width="50" height="50" relative="1" as="geometry">
            <mxPoint x="193" y="160" as="sourcePoint" />
            <mxPoint x="193" y="190" as="targetPoint" />
          </mxGeometry>
        </mxCell>
        <mxCell id="_lU7bbWi_hCYTLzxq-Pw-21" value="" style="endArrow=classic;html=1;rounded=0;exitX=0.5;exitY=1;exitDx=0;exitDy=0;entryX=0.5;entryY=0;entryDx=0;entryDy=0;" parent="1" source="_lU7bbWi_hCYTLzxq-Pw-12" target="_lU7bbWi_hCYTLzxq-Pw-14" edge="1">
          <mxGeometry width="50" height="50" relative="1" as="geometry">
            <mxPoint x="203" y="170" as="sourcePoint" />
            <mxPoint x="203" y="200" as="targetPoint" />
          </mxGeometry>
        </mxCell>
        <mxCell id="_lU7bbWi_hCYTLzxq-Pw-22" value="" style="endArrow=classic;html=1;rounded=0;exitX=0.5;exitY=1;exitDx=0;exitDy=0;entryX=0.5;entryY=0;entryDx=0;entryDy=0;" parent="1" source="_lU7bbWi_hCYTLzxq-Pw-14" target="_lU7bbWi_hCYTLzxq-Pw-15" edge="1">
          <mxGeometry width="50" height="50" relative="1" as="geometry">
            <mxPoint x="213" y="180" as="sourcePoint" />
            <mxPoint x="213" y="210" as="targetPoint" />
          </mxGeometry>
        </mxCell>
        <mxCell id="_lU7bbWi_hCYTLzxq-Pw-23" value="" style="endArrow=classic;html=1;rounded=0;exitX=0.556;exitY=0.797;exitDx=0;exitDy=0;exitPerimeter=0;entryX=0.5;entryY=0;entryDx=0;entryDy=0;" parent="1" source="_lU7bbWi_hCYTLzxq-Pw-15" target="_lU7bbWi_hCYTLzxq-Pw-61" edge="1">
          <mxGeometry width="50" height="50" relative="1" as="geometry">
            <mxPoint x="223" y="190" as="sourcePoint" />
            <mxPoint x="160" y="1090" as="targetPoint" />
          </mxGeometry>
        </mxCell>
        <mxCell id="_lU7bbWi_hCYTLzxq-Pw-24" value="&lt;span style=&quot;font-size: 18px;&quot;&gt;overTwoNum&lt;br&gt;=true&lt;/span&gt;" style="rounded=0;whiteSpace=wrap;html=1;" parent="1" vertex="1">
          <mxGeometry x="413" y="880" width="145" height="80" as="geometry" />
        </mxCell>
        <mxCell id="_lU7bbWi_hCYTLzxq-Pw-25" value="T" style="endArrow=classic;html=1;rounded=0;exitX=0.5;exitY=1;exitDx=0;exitDy=0;entryX=0.5;entryY=0;entryDx=0;entryDy=0;" parent="1" source="_lU7bbWi_hCYTLzxq-Pw-7" target="_lU7bbWi_hCYTLzxq-Pw-8" edge="1">
          <mxGeometry width="50" height="50" relative="1" as="geometry">
            <mxPoint x="1.25" y="560" as="sourcePoint" />
            <mxPoint x="3.25" y="620" as="targetPoint" />
          </mxGeometry>
        </mxCell>
        <mxCell id="_lU7bbWi_hCYTLzxq-Pw-26" value="&lt;span style=&quot;font-size: 18px;&quot;&gt;overTwoNum&lt;br&gt;==true&lt;br&gt;&lt;/span&gt;" style="rhombus;whiteSpace=wrap;html=1;" parent="1" vertex="1">
          <mxGeometry x="639.25" y="350" width="162.5" height="80" as="geometry" />
        </mxCell>
        <mxCell id="_lU7bbWi_hCYTLzxq-Pw-27" value="T" style="endArrow=classic;html=1;rounded=0;exitX=1;exitY=0.5;exitDx=0;exitDy=0;entryX=0;entryY=0.5;entryDx=0;entryDy=0;" parent="1" source="_lU7bbWi_hCYTLzxq-Pw-26" target="_lU7bbWi_hCYTLzxq-Pw-31" edge="1">
          <mxGeometry width="50" height="50" relative="1" as="geometry">
            <mxPoint x="495.25" y="440" as="sourcePoint" />
            <mxPoint x="859.25" y="390" as="targetPoint" />
          </mxGeometry>
        </mxCell>
        <mxCell id="_lU7bbWi_hCYTLzxq-Pw-28" value="F" style="endArrow=classic;html=1;rounded=0;exitX=1;exitY=0.5;exitDx=0;exitDy=0;entryX=0;entryY=0.5;entryDx=0;entryDy=0;" parent="1" source="_lU7bbWi_hCYTLzxq-Pw-7" target="_lU7bbWi_hCYTLzxq-Pw-26" edge="1">
          <mxGeometry width="50" height="50" relative="1" as="geometry">
            <mxPoint x="569.25" y="580" as="sourcePoint" />
            <mxPoint x="619.25" y="530" as="targetPoint" />
          </mxGeometry>
        </mxCell>
        <mxCell id="_lU7bbWi_hCYTLzxq-Pw-29" value="F" style="endArrow=classic;html=1;rounded=0;exitX=0.5;exitY=1;exitDx=0;exitDy=0;entryX=0.5;entryY=0;entryDx=0;entryDy=0;" parent="1" source="_lU7bbWi_hCYTLzxq-Pw-26" target="_lU7bbWi_hCYTLzxq-Pw-34" edge="1">
          <mxGeometry width="50" height="50" relative="1" as="geometry">
            <mxPoint x="577.25" y="400" as="sourcePoint" />
            <mxPoint x="719.25" y="560" as="targetPoint" />
          </mxGeometry>
        </mxCell>
        <mxCell id="_lU7bbWi_hCYTLzxq-Pw-31" value="&lt;font style=&quot;font-size: 18px;&quot;&gt;Enque(&amp;amp;Postfix_Queue, &#39; &#39;)&lt;br&gt;overTwoNum=false&lt;br&gt;&lt;/font&gt;" style="rounded=0;whiteSpace=wrap;html=1;" parent="1" vertex="1">
          <mxGeometry x="869.25" y="355" width="225" height="70" as="geometry" />
        </mxCell>
        <mxCell id="_lU7bbWi_hCYTLzxq-Pw-33" value="" style="endArrow=classic;html=1;rounded=0;exitX=0.5;exitY=1;exitDx=0;exitDy=0;" parent="1" source="_lU7bbWi_hCYTLzxq-Pw-31" edge="1">
          <mxGeometry width="50" height="50" relative="1" as="geometry">
            <mxPoint x="839.25" y="700" as="sourcePoint" />
            <mxPoint x="719.25" y="450" as="targetPoint" />
            <Array as="points">
              <mxPoint x="982.25" y="450" />
            </Array>
          </mxGeometry>
        </mxCell>
        <mxCell id="_lU7bbWi_hCYTLzxq-Pw-34" value="&lt;span style=&quot;font-size: 18px;&quot;&gt;letter&lt;/span&gt;" style="rhombus;whiteSpace=wrap;html=1;" parent="1" vertex="1">
          <mxGeometry x="639.25" y="468" width="162.5" height="80" as="geometry" />
        </mxCell>
        <mxCell id="_lU7bbWi_hCYTLzxq-Pw-35" value="" style="endArrow=classic;html=1;rounded=0;exitX=0.5;exitY=1;exitDx=0;exitDy=0;entryX=0.5;entryY=0;entryDx=0;entryDy=0;" parent="1" source="_lU7bbWi_hCYTLzxq-Pw-34" target="o7uIKfqhR9M-1sjR024_-26" edge="1">
          <mxGeometry width="50" height="50" relative="1" as="geometry">
            <mxPoint x="699.25" y="670" as="sourcePoint" />
            <mxPoint x="720.25" y="640" as="targetPoint" />
          </mxGeometry>
        </mxCell>
        <mxCell id="_lU7bbWi_hCYTLzxq-Pw-36" value="&lt;font style=&quot;font-size: 18px;&quot;&gt;(&lt;/font&gt;" style="rounded=1;whiteSpace=wrap;html=1;" parent="1" vertex="1">
          <mxGeometry x="679.25" y="600" width="30" height="30" as="geometry" />
        </mxCell>
        <mxCell id="_lU7bbWi_hCYTLzxq-Pw-37" value="" style="endArrow=classic;html=1;rounded=0;exitX=0.5;exitY=1;exitDx=0;exitDy=0;entryX=0.5;entryY=0;entryDx=0;entryDy=0;" parent="1" source="_lU7bbWi_hCYTLzxq-Pw-8" target="_lU7bbWi_hCYTLzxq-Pw-9" edge="1">
          <mxGeometry width="50" height="50" relative="1" as="geometry">
            <mxPoint x="559.25" y="670" as="sourcePoint" />
            <mxPoint x="609.25" y="620" as="targetPoint" />
          </mxGeometry>
        </mxCell>
        <mxCell id="_lU7bbWi_hCYTLzxq-Pw-38" value="T" style="endArrow=classic;html=1;rounded=0;exitX=0.5;exitY=1;exitDx=0;exitDy=0;entryX=0.5;entryY=0;entryDx=0;entryDy=0;" parent="1" source="_lU7bbWi_hCYTLzxq-Pw-9" target="_lU7bbWi_hCYTLzxq-Pw-10" edge="1">
          <mxGeometry width="50" height="50" relative="1" as="geometry">
            <mxPoint x="559.25" y="670" as="sourcePoint" />
            <mxPoint x="609.25" y="620" as="targetPoint" />
          </mxGeometry>
        </mxCell>
        <mxCell id="_lU7bbWi_hCYTLzxq-Pw-39" value="" style="endArrow=classic;html=1;rounded=0;exitX=0.5;exitY=1;exitDx=0;exitDy=0;entryX=0.5;entryY=0;entryDx=0;entryDy=0;" parent="1" source="_lU7bbWi_hCYTLzxq-Pw-10" target="_lU7bbWi_hCYTLzxq-Pw-11" edge="1">
          <mxGeometry width="50" height="50" relative="1" as="geometry">
            <mxPoint x="519.25" y="720" as="sourcePoint" />
            <mxPoint x="569.25" y="670" as="targetPoint" />
          </mxGeometry>
        </mxCell>
        <mxCell id="_lU7bbWi_hCYTLzxq-Pw-40" value="T" style="endArrow=classic;html=1;rounded=0;exitX=0.5;exitY=1;exitDx=0;exitDy=0;entryX=0.5;entryY=0;entryDx=0;entryDy=0;" parent="1" source="_lU7bbWi_hCYTLzxq-Pw-11" target="_lU7bbWi_hCYTLzxq-Pw-24" edge="1">
          <mxGeometry width="50" height="50" relative="1" as="geometry">
            <mxPoint x="519.25" y="720" as="sourcePoint" />
            <mxPoint x="569.25" y="670" as="targetPoint" />
          </mxGeometry>
        </mxCell>
        <mxCell id="_lU7bbWi_hCYTLzxq-Pw-41" value="F" style="endArrow=classic;html=1;rounded=0;exitX=0;exitY=0.5;exitDx=0;exitDy=0;" parent="1" source="_lU7bbWi_hCYTLzxq-Pw-9" edge="1">
          <mxGeometry width="50" height="50" relative="1" as="geometry">
            <mxPoint x="519.25" y="720" as="sourcePoint" />
            <mxPoint x="485.25" y="760" as="targetPoint" />
            <Array as="points">
              <mxPoint x="369.25" y="598" />
              <mxPoint x="369.25" y="760" />
            </Array>
          </mxGeometry>
        </mxCell>
        <mxCell id="_lU7bbWi_hCYTLzxq-Pw-42" value="" style="endArrow=classic;html=1;rounded=0;exitX=0.5;exitY=1;exitDx=0;exitDy=0;entryX=0.5;entryY=0;entryDx=0;entryDy=0;" parent="1" source="_lU7bbWi_hCYTLzxq-Pw-24" target="o7uIKfqhR9M-1sjR024_-6" edge="1">
          <mxGeometry width="50" height="50" relative="1" as="geometry">
            <mxPoint x="519.25" y="830" as="sourcePoint" />
            <mxPoint x="569.25" y="780" as="targetPoint" />
          </mxGeometry>
        </mxCell>
        <mxCell id="_lU7bbWi_hCYTLzxq-Pw-43" value="F" style="endArrow=classic;html=1;rounded=0;exitX=0;exitY=0.5;exitDx=0;exitDy=0;" parent="1" source="_lU7bbWi_hCYTLzxq-Pw-11" edge="1">
          <mxGeometry width="50" height="50" relative="1" as="geometry">
            <mxPoint x="519.25" y="830" as="sourcePoint" />
            <mxPoint x="485.25" y="980" as="targetPoint" />
            <Array as="points">
              <mxPoint x="349.25" y="810" />
              <mxPoint x="349.25" y="980" />
            </Array>
          </mxGeometry>
        </mxCell>
        <mxCell id="_lU7bbWi_hCYTLzxq-Pw-44" value="" style="endArrow=classic;html=1;rounded=0;entryX=0.5;entryY=0;entryDx=0;entryDy=0;" parent="1" target="_lU7bbWi_hCYTLzxq-Pw-45" edge="1">
          <mxGeometry width="50" height="50" relative="1" as="geometry">
            <mxPoint x="719.25" y="590" as="sourcePoint" />
            <mxPoint x="989.25" y="640" as="targetPoint" />
            <Array as="points">
              <mxPoint x="989.25" y="590" />
            </Array>
          </mxGeometry>
        </mxCell>
        <mxCell id="_lU7bbWi_hCYTLzxq-Pw-45" value="&lt;font style=&quot;font-size: 18px;&quot;&gt;char popLetter=&#39;)&#39;&lt;/font&gt;" style="rounded=0;whiteSpace=wrap;html=1;" parent="1" vertex="1">
          <mxGeometry x="929.25" y="647" width="120" height="60" as="geometry" />
        </mxCell>
        <mxCell id="_lU7bbWi_hCYTLzxq-Pw-46" value="&lt;font style=&quot;font-size: 18px;&quot;&gt;popLetter&lt;br&gt;&amp;nbsp;!=&#39;(&#39;&lt;/font&gt;" style="rhombus;whiteSpace=wrap;html=1;" parent="1" vertex="1">
          <mxGeometry x="924.25" y="730" width="130" height="80" as="geometry" />
        </mxCell>
        <mxCell id="_lU7bbWi_hCYTLzxq-Pw-47" value="&lt;font style=&quot;font-size: 18px;&quot;&gt;Pop(&amp;amp;Operator_Stack&lt;br&gt;,&amp;amp;popLetter)&lt;/font&gt;" style="rounded=0;whiteSpace=wrap;html=1;" parent="1" vertex="1">
          <mxGeometry x="879.25" y="840" width="220" height="58" as="geometry" />
        </mxCell>
        <mxCell id="_lU7bbWi_hCYTLzxq-Pw-48" value="&lt;font style=&quot;font-size: 18px;&quot;&gt;popLetter&lt;br&gt;&amp;nbsp;!=&#39;(&#39;&lt;/font&gt;" style="rhombus;whiteSpace=wrap;html=1;" parent="1" vertex="1">
          <mxGeometry x="924.25" y="930" width="130" height="80" as="geometry" />
        </mxCell>
        <mxCell id="_lU7bbWi_hCYTLzxq-Pw-49" value="&lt;font style=&quot;font-size: 18px;&quot;&gt;Enque(&amp;amp;Postfix_Queue, popLetter)&lt;br&gt;&lt;/font&gt;" style="rounded=0;whiteSpace=wrap;html=1;" parent="1" vertex="1">
          <mxGeometry x="876.75" y="1050" width="225" height="70" as="geometry" />
        </mxCell>
        <mxCell id="_lU7bbWi_hCYTLzxq-Pw-50" value="" style="endArrow=classic;html=1;rounded=0;exitX=0.5;exitY=1;exitDx=0;exitDy=0;entryX=0.5;entryY=0;entryDx=0;entryDy=0;" parent="1" source="_lU7bbWi_hCYTLzxq-Pw-45" target="_lU7bbWi_hCYTLzxq-Pw-46" edge="1">
          <mxGeometry width="50" height="50" relative="1" as="geometry">
            <mxPoint x="999.25" y="930" as="sourcePoint" />
            <mxPoint x="1049.25" y="880" as="targetPoint" />
          </mxGeometry>
        </mxCell>
        <mxCell id="_lU7bbWi_hCYTLzxq-Pw-51" value="T" style="endArrow=classic;html=1;rounded=0;exitX=0.5;exitY=1;exitDx=0;exitDy=0;entryX=0.5;entryY=0;entryDx=0;entryDy=0;" parent="1" source="_lU7bbWi_hCYTLzxq-Pw-46" target="_lU7bbWi_hCYTLzxq-Pw-47" edge="1">
          <mxGeometry width="50" height="50" relative="1" as="geometry">
            <mxPoint x="999.25" y="930" as="sourcePoint" />
            <mxPoint x="1049.25" y="880" as="targetPoint" />
          </mxGeometry>
        </mxCell>
        <mxCell id="_lU7bbWi_hCYTLzxq-Pw-52" value="" style="endArrow=classic;html=1;rounded=0;exitX=0.5;exitY=1;exitDx=0;exitDy=0;entryX=0.5;entryY=0;entryDx=0;entryDy=0;" parent="1" source="_lU7bbWi_hCYTLzxq-Pw-47" target="_lU7bbWi_hCYTLzxq-Pw-48" edge="1">
          <mxGeometry width="50" height="50" relative="1" as="geometry">
            <mxPoint x="999.25" y="930" as="sourcePoint" />
            <mxPoint x="1049.25" y="880" as="targetPoint" />
          </mxGeometry>
        </mxCell>
        <mxCell id="_lU7bbWi_hCYTLzxq-Pw-54" value="T" style="endArrow=classic;html=1;rounded=0;exitX=0.5;exitY=1;exitDx=0;exitDy=0;entryX=0.5;entryY=0;entryDx=0;entryDy=0;" parent="1" source="_lU7bbWi_hCYTLzxq-Pw-48" target="_lU7bbWi_hCYTLzxq-Pw-49" edge="1">
          <mxGeometry width="50" height="50" relative="1" as="geometry">
            <mxPoint x="999.25" y="820" as="sourcePoint" />
            <mxPoint x="1049.25" y="770" as="targetPoint" />
          </mxGeometry>
        </mxCell>
        <mxCell id="_lU7bbWi_hCYTLzxq-Pw-55" value="" style="endArrow=classic;html=1;rounded=0;exitX=0.5;exitY=1;exitDx=0;exitDy=0;" parent="1" source="_lU7bbWi_hCYTLzxq-Pw-49" edge="1">
          <mxGeometry width="50" height="50" relative="1" as="geometry">
            <mxPoint x="949.25" y="1050" as="sourcePoint" />
            <mxPoint x="989.25" y="720" as="targetPoint" />
            <Array as="points">
              <mxPoint x="989.25" y="1160" />
              <mxPoint x="859.25" y="1160" />
              <mxPoint x="859.25" y="720" />
            </Array>
          </mxGeometry>
        </mxCell>
        <mxCell id="_lU7bbWi_hCYTLzxq-Pw-56" value="F" style="endArrow=none;html=1;rounded=0;entryX=0;entryY=0.5;entryDx=0;entryDy=0;" parent="1" target="_lU7bbWi_hCYTLzxq-Pw-48" edge="1">
          <mxGeometry width="50" height="50" relative="1" as="geometry">
            <mxPoint x="859.25" y="970" as="sourcePoint" />
            <mxPoint x="1129.25" y="1020" as="targetPoint" />
          </mxGeometry>
        </mxCell>
        <mxCell id="_lU7bbWi_hCYTLzxq-Pw-58" value="" style="endArrow=none;html=1;rounded=0;entryX=0.5;entryY=1;entryDx=0;entryDy=0;" parent="1" target="o7uIKfqhR9M-1sjR024_-26" edge="1">
          <mxGeometry width="50" height="50" relative="1" as="geometry">
            <mxPoint x="729.25" y="1290" as="sourcePoint" />
            <mxPoint x="889.25" y="990" as="targetPoint" />
          </mxGeometry>
        </mxCell>
        <mxCell id="_lU7bbWi_hCYTLzxq-Pw-59" value="F" style="endArrow=none;html=1;rounded=0;entryX=1;entryY=0.5;entryDx=0;entryDy=0;" parent="1" target="_lU7bbWi_hCYTLzxq-Pw-46" edge="1">
          <mxGeometry width="50" height="50" relative="1" as="geometry">
            <mxPoint x="1119.25" y="1290" as="sourcePoint" />
            <mxPoint x="733.25" y="716" as="targetPoint" />
            <Array as="points">
              <mxPoint x="1119.25" y="770" />
            </Array>
          </mxGeometry>
        </mxCell>
        <mxCell id="_lU7bbWi_hCYTLzxq-Pw-60" value="&lt;span style=&quot;font-size: 18px;&quot;&gt;)&lt;/span&gt;" style="rounded=1;whiteSpace=wrap;html=1;" parent="1" vertex="1">
          <mxGeometry x="939.25" y="601" width="30" height="30" as="geometry" />
        </mxCell>
        <mxCell id="_lU7bbWi_hCYTLzxq-Pw-61" value="&lt;font style=&quot;font-size: 18px;&quot;&gt;할당된 &lt;br&gt;메모리 제거&lt;/font&gt;" style="rounded=0;whiteSpace=wrap;html=1;" parent="1" vertex="1">
          <mxGeometry x="103" y="1075" width="120" height="60" as="geometry" />
        </mxCell>
        <mxCell id="_lU7bbWi_hCYTLzxq-Pw-62" value="" style="endArrow=classic;html=1;rounded=0;exitX=0.5;exitY=1;exitDx=0;exitDy=0;entryX=0.5;entryY=0;entryDx=0;entryDy=0;" parent="1" source="_lU7bbWi_hCYTLzxq-Pw-61" target="_lU7bbWi_hCYTLzxq-Pw-16" edge="1">
          <mxGeometry width="50" height="50" relative="1" as="geometry">
            <mxPoint x="172" y="1030" as="sourcePoint" />
            <mxPoint x="173" y="1085" as="targetPoint" />
          </mxGeometry>
        </mxCell>
        <mxCell id="_lU7bbWi_hCYTLzxq-Pw-63" value="" style="endArrow=classic;html=1;rounded=0;entryX=0.5;entryY=0;entryDx=0;entryDy=0;" parent="1" edge="1">
          <mxGeometry width="50" height="50" relative="1" as="geometry">
            <mxPoint x="989.25" y="590" as="sourcePoint" />
            <mxPoint x="1259.25" y="647" as="targetPoint" />
            <Array as="points">
              <mxPoint x="1259.25" y="590" />
            </Array>
          </mxGeometry>
        </mxCell>
        <mxCell id="_lU7bbWi_hCYTLzxq-Pw-64" value="&lt;span style=&quot;font-size: 18px;&quot;&gt;* or /&lt;/span&gt;" style="rounded=1;whiteSpace=wrap;html=1;" parent="1" vertex="1">
          <mxGeometry x="1179.25" y="601" width="60" height="30" as="geometry" />
        </mxCell>
        <mxCell id="_lU7bbWi_hCYTLzxq-Pw-65" value="&lt;span style=&quot;font-size: 18px;&quot;&gt;char oper&lt;/span&gt;" style="rounded=0;whiteSpace=wrap;html=1;" parent="1" vertex="1">
          <mxGeometry x="1199.25" y="648" width="110" height="32" as="geometry" />
        </mxCell>
        <mxCell id="_lU7bbWi_hCYTLzxq-Pw-66" value="&lt;font style=&quot;font-size: 18px;&quot;&gt;Peek(&amp;amp;Operator_Stack&lt;br&gt;,&amp;amp;oper)&lt;/font&gt;" style="rounded=0;whiteSpace=wrap;html=1;" parent="1" vertex="1">
          <mxGeometry x="1144.25" y="702" width="220" height="58" as="geometry" />
        </mxCell>
        <mxCell id="_lU7bbWi_hCYTLzxq-Pw-67" value="&lt;font style=&quot;font-size: 18px;&quot;&gt;oper== *&lt;br&gt;|| oper== /&lt;br&gt;&lt;/font&gt;" style="rhombus;whiteSpace=wrap;html=1;" parent="1" vertex="1">
          <mxGeometry x="1174.25" y="780" width="160" height="80" as="geometry" />
        </mxCell>
        <mxCell id="_lU7bbWi_hCYTLzxq-Pw-68" value="&lt;font style=&quot;font-size: 18px;&quot;&gt;Pop(&amp;amp;Operator_Stack&lt;br&gt;,&amp;amp;oper)&lt;/font&gt;" style="rounded=0;whiteSpace=wrap;html=1;" parent="1" vertex="1">
          <mxGeometry x="1144.25" y="890" width="220" height="58" as="geometry" />
        </mxCell>
        <mxCell id="_lU7bbWi_hCYTLzxq-Pw-69" value="&lt;font style=&quot;font-size: 18px;&quot;&gt;Enque(&amp;amp;Postfix_Queue, oper)&lt;br&gt;&lt;/font&gt;" style="rounded=0;whiteSpace=wrap;html=1;" parent="1" vertex="1">
          <mxGeometry x="1141.75" y="970" width="225" height="70" as="geometry" />
        </mxCell>
        <mxCell id="_lU7bbWi_hCYTLzxq-Pw-70" value="&lt;font style=&quot;font-size: 18px;&quot;&gt;Peek(&amp;amp;Operator_Stack&lt;br&gt;,&amp;amp;oper)&lt;/font&gt;" style="rounded=0;whiteSpace=wrap;html=1;" parent="1" vertex="1">
          <mxGeometry x="1144.25" y="1062" width="220" height="58" as="geometry" />
        </mxCell>
        <mxCell id="_lU7bbWi_hCYTLzxq-Pw-71" value="&lt;font style=&quot;font-size: 18px;&quot;&gt;Push(&amp;amp;Operator_Stack&lt;br&gt;,letter)&lt;/font&gt;" style="rounded=0;whiteSpace=wrap;html=1;" parent="1" vertex="1">
          <mxGeometry x="1144.25" y="1200" width="220" height="58" as="geometry" />
        </mxCell>
        <mxCell id="_lU7bbWi_hCYTLzxq-Pw-72" value="" style="endArrow=classic;html=1;rounded=0;exitX=0.5;exitY=1;exitDx=0;exitDy=0;entryX=0.5;entryY=0;entryDx=0;entryDy=0;" parent="1" source="_lU7bbWi_hCYTLzxq-Pw-65" target="_lU7bbWi_hCYTLzxq-Pw-66" edge="1">
          <mxGeometry width="50" height="50" relative="1" as="geometry">
            <mxPoint x="1239.25" y="1050" as="sourcePoint" />
            <mxPoint x="1289.25" y="1000" as="targetPoint" />
          </mxGeometry>
        </mxCell>
        <mxCell id="_lU7bbWi_hCYTLzxq-Pw-73" value="" style="endArrow=classic;html=1;rounded=0;exitX=0.5;exitY=1;exitDx=0;exitDy=0;entryX=0.5;entryY=0;entryDx=0;entryDy=0;" parent="1" source="_lU7bbWi_hCYTLzxq-Pw-66" target="_lU7bbWi_hCYTLzxq-Pw-67" edge="1">
          <mxGeometry width="50" height="50" relative="1" as="geometry">
            <mxPoint x="1239.25" y="1050" as="sourcePoint" />
            <mxPoint x="1259.25" y="790" as="targetPoint" />
          </mxGeometry>
        </mxCell>
        <mxCell id="_lU7bbWi_hCYTLzxq-Pw-74" value="T" style="endArrow=classic;html=1;rounded=0;exitX=0.5;exitY=1;exitDx=0;exitDy=0;entryX=0.5;entryY=0;entryDx=0;entryDy=0;" parent="1" source="_lU7bbWi_hCYTLzxq-Pw-67" target="_lU7bbWi_hCYTLzxq-Pw-68" edge="1">
          <mxGeometry width="50" height="50" relative="1" as="geometry">
            <mxPoint x="1239.25" y="1050" as="sourcePoint" />
            <mxPoint x="1289.25" y="1000" as="targetPoint" />
          </mxGeometry>
        </mxCell>
        <mxCell id="_lU7bbWi_hCYTLzxq-Pw-75" value="" style="endArrow=classic;html=1;rounded=0;exitX=0.5;exitY=1;exitDx=0;exitDy=0;entryX=0.5;entryY=0;entryDx=0;entryDy=0;" parent="1" source="_lU7bbWi_hCYTLzxq-Pw-68" target="_lU7bbWi_hCYTLzxq-Pw-69" edge="1">
          <mxGeometry width="50" height="50" relative="1" as="geometry">
            <mxPoint x="1249.25" y="1100" as="sourcePoint" />
            <mxPoint x="1299.25" y="1050" as="targetPoint" />
          </mxGeometry>
        </mxCell>
        <mxCell id="_lU7bbWi_hCYTLzxq-Pw-76" value="" style="endArrow=classic;html=1;rounded=0;exitX=0.5;exitY=1;exitDx=0;exitDy=0;entryX=0.5;entryY=0;entryDx=0;entryDy=0;" parent="1" source="_lU7bbWi_hCYTLzxq-Pw-69" target="_lU7bbWi_hCYTLzxq-Pw-70" edge="1">
          <mxGeometry width="50" height="50" relative="1" as="geometry">
            <mxPoint x="1249.25" y="1100" as="sourcePoint" />
            <mxPoint x="1299.25" y="1050" as="targetPoint" />
          </mxGeometry>
        </mxCell>
        <mxCell id="_lU7bbWi_hCYTLzxq-Pw-77" value="" style="endArrow=classic;html=1;rounded=0;exitX=0.5;exitY=1;exitDx=0;exitDy=0;entryX=0;entryY=0.5;entryDx=0;entryDy=0;" parent="1" source="_lU7bbWi_hCYTLzxq-Pw-70" target="_lU7bbWi_hCYTLzxq-Pw-67" edge="1">
          <mxGeometry width="50" height="50" relative="1" as="geometry">
            <mxPoint x="1249.25" y="1100" as="sourcePoint" />
            <mxPoint x="1299.25" y="1050" as="targetPoint" />
            <Array as="points">
              <mxPoint x="1254.25" y="1160" />
              <mxPoint x="1129.25" y="1160" />
              <mxPoint x="1129.25" y="820" />
            </Array>
          </mxGeometry>
        </mxCell>
        <mxCell id="_lU7bbWi_hCYTLzxq-Pw-78" value="F" style="endArrow=classic;html=1;rounded=0;exitX=1;exitY=0.5;exitDx=0;exitDy=0;entryX=0.5;entryY=0;entryDx=0;entryDy=0;" parent="1" source="_lU7bbWi_hCYTLzxq-Pw-67" target="_lU7bbWi_hCYTLzxq-Pw-71" edge="1">
          <mxGeometry width="50" height="50" relative="1" as="geometry">
            <mxPoint x="1249.25" y="1100" as="sourcePoint" />
            <mxPoint x="1299.25" y="1050" as="targetPoint" />
            <Array as="points">
              <mxPoint x="1389.25" y="820" />
              <mxPoint x="1389.25" y="1180" />
              <mxPoint x="1254.25" y="1180" />
            </Array>
          </mxGeometry>
        </mxCell>
        <mxCell id="_lU7bbWi_hCYTLzxq-Pw-79" value="" style="endArrow=classic;html=1;rounded=0;entryX=0.5;entryY=0;entryDx=0;entryDy=0;" parent="1" edge="1">
          <mxGeometry width="50" height="50" relative="1" as="geometry">
            <mxPoint x="1259.25" y="590" as="sourcePoint" />
            <mxPoint x="1529.25" y="647" as="targetPoint" />
            <Array as="points">
              <mxPoint x="1529.25" y="590" />
            </Array>
          </mxGeometry>
        </mxCell>
        <mxCell id="_lU7bbWi_hCYTLzxq-Pw-80" value="&lt;span style=&quot;font-size: 18px;&quot;&gt;+ or -&lt;/span&gt;" style="rounded=1;whiteSpace=wrap;html=1;" parent="1" vertex="1">
          <mxGeometry x="1459.25" y="601" width="60" height="30" as="geometry" />
        </mxCell>
        <mxCell id="_lU7bbWi_hCYTLzxq-Pw-81" value="&lt;span style=&quot;font-size: 18px;&quot;&gt;char oper&lt;/span&gt;" style="rounded=0;whiteSpace=wrap;html=1;" parent="1" vertex="1">
          <mxGeometry x="1479.25" y="647" width="110" height="32" as="geometry" />
        </mxCell>
        <mxCell id="_lU7bbWi_hCYTLzxq-Pw-82" value="&lt;font style=&quot;font-size: 18px;&quot;&gt;Peek(&amp;amp;Operator_Stack&lt;br&gt;,&amp;amp;oper)&lt;/font&gt;" style="rounded=0;whiteSpace=wrap;html=1;" parent="1" vertex="1">
          <mxGeometry x="1424.25" y="701" width="220" height="58" as="geometry" />
        </mxCell>
        <mxCell id="_lU7bbWi_hCYTLzxq-Pw-83" value="&lt;font style=&quot;font-size: 18px;&quot;&gt;oper== *&lt;br&gt;|| oper== /&lt;br&gt;||oper== +&lt;br&gt;||oper== -&lt;br&gt;&lt;/font&gt;" style="rhombus;whiteSpace=wrap;html=1;" parent="1" vertex="1">
          <mxGeometry x="1454.25" y="770" width="160" height="100" as="geometry" />
        </mxCell>
        <mxCell id="_lU7bbWi_hCYTLzxq-Pw-84" value="&lt;font style=&quot;font-size: 18px;&quot;&gt;Pop(&amp;amp;Operator_Stack&lt;br&gt;,&amp;amp;oper)&lt;/font&gt;" style="rounded=0;whiteSpace=wrap;html=1;" parent="1" vertex="1">
          <mxGeometry x="1424.25" y="900" width="220" height="58" as="geometry" />
        </mxCell>
        <mxCell id="_lU7bbWi_hCYTLzxq-Pw-85" value="&lt;font style=&quot;font-size: 18px;&quot;&gt;Enque(&amp;amp;Postfix_Queue, oper)&lt;br&gt;&lt;/font&gt;" style="rounded=0;whiteSpace=wrap;html=1;" parent="1" vertex="1">
          <mxGeometry x="1421.75" y="980" width="225" height="70" as="geometry" />
        </mxCell>
        <mxCell id="_lU7bbWi_hCYTLzxq-Pw-86" value="&lt;font style=&quot;font-size: 18px;&quot;&gt;Peek(&amp;amp;Operator_Stack&lt;br&gt;,&amp;amp;oper)&lt;/font&gt;" style="rounded=0;whiteSpace=wrap;html=1;" parent="1" vertex="1">
          <mxGeometry x="1424.25" y="1072" width="220" height="58" as="geometry" />
        </mxCell>
        <mxCell id="_lU7bbWi_hCYTLzxq-Pw-87" value="&lt;font style=&quot;font-size: 18px;&quot;&gt;Push(&amp;amp;Operator_Stack&lt;br&gt;,letter)&lt;/font&gt;" style="rounded=0;whiteSpace=wrap;html=1;" parent="1" vertex="1">
          <mxGeometry x="1425.75" y="1200" width="220" height="58" as="geometry" />
        </mxCell>
        <mxCell id="_lU7bbWi_hCYTLzxq-Pw-88" value="" style="endArrow=classic;html=1;rounded=0;exitX=0.5;exitY=1;exitDx=0;exitDy=0;entryX=0.5;entryY=0;entryDx=0;entryDy=0;" parent="1" source="_lU7bbWi_hCYTLzxq-Pw-81" target="_lU7bbWi_hCYTLzxq-Pw-82" edge="1">
          <mxGeometry width="50" height="50" relative="1" as="geometry">
            <mxPoint x="1519.25" y="1049" as="sourcePoint" />
            <mxPoint x="1569.25" y="999" as="targetPoint" />
          </mxGeometry>
        </mxCell>
        <mxCell id="_lU7bbWi_hCYTLzxq-Pw-89" value="" style="endArrow=classic;html=1;rounded=0;exitX=0.5;exitY=1;exitDx=0;exitDy=0;entryX=0.5;entryY=0;entryDx=0;entryDy=0;" parent="1" source="_lU7bbWi_hCYTLzxq-Pw-82" target="_lU7bbWi_hCYTLzxq-Pw-83" edge="1">
          <mxGeometry width="50" height="50" relative="1" as="geometry">
            <mxPoint x="1519.25" y="1049" as="sourcePoint" />
            <mxPoint x="1539.25" y="789" as="targetPoint" />
          </mxGeometry>
        </mxCell>
        <mxCell id="_lU7bbWi_hCYTLzxq-Pw-90" value="T" style="endArrow=classic;html=1;rounded=0;exitX=0.5;exitY=1;exitDx=0;exitDy=0;entryX=0.5;entryY=0;entryDx=0;entryDy=0;" parent="1" source="_lU7bbWi_hCYTLzxq-Pw-83" target="_lU7bbWi_hCYTLzxq-Pw-84" edge="1">
          <mxGeometry width="50" height="50" relative="1" as="geometry">
            <mxPoint x="1519.25" y="1049" as="sourcePoint" />
            <mxPoint x="1569.25" y="999" as="targetPoint" />
          </mxGeometry>
        </mxCell>
        <mxCell id="_lU7bbWi_hCYTLzxq-Pw-91" value="" style="endArrow=classic;html=1;rounded=0;exitX=0.5;exitY=1;exitDx=0;exitDy=0;entryX=0.5;entryY=0;entryDx=0;entryDy=0;" parent="1" source="_lU7bbWi_hCYTLzxq-Pw-84" target="_lU7bbWi_hCYTLzxq-Pw-85" edge="1">
          <mxGeometry width="50" height="50" relative="1" as="geometry">
            <mxPoint x="1529.25" y="1110" as="sourcePoint" />
            <mxPoint x="1579.25" y="1060" as="targetPoint" />
          </mxGeometry>
        </mxCell>
        <mxCell id="_lU7bbWi_hCYTLzxq-Pw-92" value="" style="endArrow=classic;html=1;rounded=0;exitX=0.5;exitY=1;exitDx=0;exitDy=0;entryX=0.5;entryY=0;entryDx=0;entryDy=0;" parent="1" source="_lU7bbWi_hCYTLzxq-Pw-85" target="_lU7bbWi_hCYTLzxq-Pw-86" edge="1">
          <mxGeometry width="50" height="50" relative="1" as="geometry">
            <mxPoint x="1529.25" y="1110" as="sourcePoint" />
            <mxPoint x="1579.25" y="1060" as="targetPoint" />
          </mxGeometry>
        </mxCell>
        <mxCell id="_lU7bbWi_hCYTLzxq-Pw-93" value="" style="endArrow=classic;html=1;rounded=0;exitX=0.5;exitY=1;exitDx=0;exitDy=0;entryX=0;entryY=0.5;entryDx=0;entryDy=0;" parent="1" source="_lU7bbWi_hCYTLzxq-Pw-86" target="_lU7bbWi_hCYTLzxq-Pw-83" edge="1">
          <mxGeometry width="50" height="50" relative="1" as="geometry">
            <mxPoint x="1529.25" y="1099" as="sourcePoint" />
            <mxPoint x="1579.25" y="1049" as="targetPoint" />
            <Array as="points">
              <mxPoint x="1534.25" y="1159" />
              <mxPoint x="1409.25" y="1159" />
              <mxPoint x="1409.25" y="819" />
            </Array>
          </mxGeometry>
        </mxCell>
        <mxCell id="_lU7bbWi_hCYTLzxq-Pw-94" value="F" style="endArrow=classic;html=1;rounded=0;exitX=1;exitY=0.5;exitDx=0;exitDy=0;entryX=0.5;entryY=0;entryDx=0;entryDy=0;" parent="1" source="_lU7bbWi_hCYTLzxq-Pw-83" target="_lU7bbWi_hCYTLzxq-Pw-87" edge="1">
          <mxGeometry width="50" height="50" relative="1" as="geometry">
            <mxPoint x="1529.25" y="1099" as="sourcePoint" />
            <mxPoint x="1579.25" y="1049" as="targetPoint" />
            <Array as="points">
              <mxPoint x="1669.25" y="819" />
              <mxPoint x="1669.25" y="1179" />
              <mxPoint x="1534.25" y="1179" />
            </Array>
          </mxGeometry>
        </mxCell>
        <mxCell id="_lU7bbWi_hCYTLzxq-Pw-96" value="" style="endArrow=none;html=1;rounded=0;exitX=0.5;exitY=1;exitDx=0;exitDy=0;entryX=0.5;entryY=1;entryDx=0;entryDy=0;" parent="1" source="o7uIKfqhR9M-1sjR024_-6" target="_lU7bbWi_hCYTLzxq-Pw-5" edge="1">
          <mxGeometry width="50" height="50" relative="1" as="geometry">
            <mxPoint x="779.25" y="1020" as="sourcePoint" />
            <mxPoint x="829.25" y="970" as="targetPoint" />
          </mxGeometry>
        </mxCell>
        <mxCell id="_lU7bbWi_hCYTLzxq-Pw-97" value="" style="endArrow=none;html=1;rounded=0;exitX=0.5;exitY=1;exitDx=0;exitDy=0;" parent="1" source="_lU7bbWi_hCYTLzxq-Pw-71" edge="1">
          <mxGeometry width="50" height="50" relative="1" as="geometry">
            <mxPoint x="779.25" y="1020" as="sourcePoint" />
            <mxPoint x="1254.25" y="1290" as="targetPoint" />
          </mxGeometry>
        </mxCell>
        <mxCell id="_lU7bbWi_hCYTLzxq-Pw-98" value="" style="endArrow=none;html=1;rounded=0;entryX=0.5;entryY=1;entryDx=0;entryDy=0;" parent="1" target="_lU7bbWi_hCYTLzxq-Pw-87" edge="1">
          <mxGeometry width="50" height="50" relative="1" as="geometry">
            <mxPoint x="1536.25" y="1290" as="sourcePoint" />
            <mxPoint x="1264.25" y="1300" as="targetPoint" />
          </mxGeometry>
        </mxCell>
        <mxCell id="_lU7bbWi_hCYTLzxq-Pw-99" value="" style="endArrow=none;html=1;rounded=0;" parent="1" edge="1">
          <mxGeometry width="50" height="50" relative="1" as="geometry">
            <mxPoint x="489.25" y="1290" as="sourcePoint" />
            <mxPoint x="1539.25" y="1290" as="targetPoint" />
          </mxGeometry>
        </mxCell>
        <mxCell id="_lU7bbWi_hCYTLzxq-Pw-100" value="" style="endArrow=classic;html=1;rounded=0;exitX=0.5;exitY=1;exitDx=0;exitDy=0;entryX=0.5;entryY=0;entryDx=0;entryDy=0;" parent="1" source="_lU7bbWi_hCYTLzxq-Pw-6" target="_lU7bbWi_hCYTLzxq-Pw-7" edge="1">
          <mxGeometry width="50" height="50" relative="1" as="geometry">
            <mxPoint x="589.25" y="630" as="sourcePoint" />
            <mxPoint x="639.25" y="580" as="targetPoint" />
          </mxGeometry>
        </mxCell>
        <mxCell id="_lU7bbWi_hCYTLzxq-Pw-102" value="" style="endArrow=none;html=1;rounded=0;entryX=0.5;entryY=1;entryDx=0;entryDy=0;exitX=0.5;exitY=0;exitDx=0;exitDy=0;" parent="1" source="_lU7bbWi_hCYTLzxq-Pw-6" target="_lU7bbWi_hCYTLzxq-Pw-4" edge="1">
          <mxGeometry width="50" height="50" relative="1" as="geometry">
            <mxPoint x="595.25" y="630" as="sourcePoint" />
            <mxPoint x="645.25" y="580" as="targetPoint" />
          </mxGeometry>
        </mxCell>
        <mxCell id="_lU7bbWi_hCYTLzxq-Pw-103" value="" style="endArrow=classic;html=1;rounded=0;exitX=0.5;exitY=1;exitDx=0;exitDy=0;entryX=0.5;entryY=0;entryDx=0;entryDy=0;" parent="1" source="_lU7bbWi_hCYTLzxq-Pw-13" target="_lU7bbWi_hCYTLzxq-Pw-4" edge="1">
          <mxGeometry width="50" height="50" relative="1" as="geometry">
            <mxPoint x="595.25" y="630" as="sourcePoint" />
            <mxPoint x="645.25" y="580" as="targetPoint" />
          </mxGeometry>
        </mxCell>
        <mxCell id="_lU7bbWi_hCYTLzxq-Pw-104" value="&lt;font style=&quot;font-size: 18px;&quot;&gt;PostFix_Queue을 Operand_Stack에 &lt;br&gt;넣으면서 계산.&amp;nbsp;&lt;/font&gt;" style="shape=process;whiteSpace=wrap;html=1;backgroundOutline=1;" parent="1" vertex="1">
          <mxGeometry x="349" y="1470" width="270" height="90" as="geometry" />
        </mxCell>
        <mxCell id="_lU7bbWi_hCYTLzxq-Pw-105" value="&lt;font style=&quot;font-size: 18px;&quot;&gt;char Nums&lt;br&gt;int NumLength=0&lt;br&gt;&lt;/font&gt;" style="rounded=0;whiteSpace=wrap;html=1;" parent="1" vertex="1">
          <mxGeometry x="408.5" y="1590" width="151" height="60" as="geometry" />
        </mxCell>
        <mxCell id="_lU7bbWi_hCYTLzxq-Pw-106" value="" style="endArrow=classic;html=1;rounded=0;exitX=0.5;exitY=1;exitDx=0;exitDy=0;entryX=0.5;entryY=0;entryDx=0;entryDy=0;" parent="1" source="_lU7bbWi_hCYTLzxq-Pw-104" target="_lU7bbWi_hCYTLzxq-Pw-105" edge="1">
          <mxGeometry width="50" height="50" relative="1" as="geometry">
            <mxPoint x="539" y="1510" as="sourcePoint" />
            <mxPoint x="589" y="1460" as="targetPoint" />
          </mxGeometry>
        </mxCell>
        <mxCell id="_lU7bbWi_hCYTLzxq-Pw-107" value="&lt;font style=&quot;font-size: 14px;&quot;&gt;int i: 0,1,strlen(PostFix_Queue.que)&lt;/font&gt;" style="shape=loopLimit;whiteSpace=wrap;html=1;" parent="1" vertex="1">
          <mxGeometry x="361.5" y="1680" width="245" height="50" as="geometry" />
        </mxCell>
        <mxCell id="_lU7bbWi_hCYTLzxq-Pw-108" value="" style="endArrow=classic;html=1;rounded=0;exitX=0.5;exitY=1;exitDx=0;exitDy=0;entryX=0.5;entryY=0;entryDx=0;entryDy=0;" parent="1" source="_lU7bbWi_hCYTLzxq-Pw-105" target="_lU7bbWi_hCYTLzxq-Pw-107" edge="1">
          <mxGeometry width="50" height="50" relative="1" as="geometry">
            <mxPoint x="494" y="1570" as="sourcePoint" />
            <mxPoint x="494" y="1600" as="targetPoint" />
          </mxGeometry>
        </mxCell>
        <mxCell id="_lU7bbWi_hCYTLzxq-Pw-109" value="&lt;font style=&quot;font-size: 18px;&quot;&gt;Deque(&amp;amp;Postfix_Queue, &amp;amp;Nums)&lt;br&gt;&lt;/font&gt;" style="rounded=0;whiteSpace=wrap;html=1;" parent="1" vertex="1">
          <mxGeometry x="371.5" y="1760" width="225" height="70" as="geometry" />
        </mxCell>
        <mxCell id="_lU7bbWi_hCYTLzxq-Pw-110" value="" style="endArrow=none;html=1;rounded=0;exitX=0.5;exitY=1;exitDx=0;exitDy=0;entryX=0.5;entryY=0;entryDx=0;entryDy=0;" parent="1" source="_lU7bbWi_hCYTLzxq-Pw-107" target="_lU7bbWi_hCYTLzxq-Pw-109" edge="1">
          <mxGeometry width="50" height="50" relative="1" as="geometry">
            <mxPoint x="519" y="1850" as="sourcePoint" />
            <mxPoint x="569" y="1800" as="targetPoint" />
          </mxGeometry>
        </mxCell>
        <mxCell id="_lU7bbWi_hCYTLzxq-Pw-111" value="&lt;font style=&quot;font-size: 18px;&quot;&gt;Nums가 &lt;br&gt;숫자인가?&lt;/font&gt;" style="rhombus;whiteSpace=wrap;html=1;" parent="1" vertex="1">
          <mxGeometry x="406.5" y="1850" width="155" height="80" as="geometry" />
        </mxCell>
        <mxCell id="_lU7bbWi_hCYTLzxq-Pw-112" value="&lt;font style=&quot;font-size: 18px;&quot;&gt;Push(&amp;amp;Operand_Stack&lt;br&gt;,double(Nums-48)&lt;/font&gt;" style="rounded=0;whiteSpace=wrap;html=1;" parent="1" vertex="1">
          <mxGeometry x="375.25" y="1970" width="220" height="58" as="geometry" />
        </mxCell>
        <mxCell id="_lU7bbWi_hCYTLzxq-Pw-113" value="&lt;font style=&quot;font-size: 18px;&quot;&gt;int NumLength++&lt;br&gt;&lt;/font&gt;" style="rounded=0;whiteSpace=wrap;html=1;" parent="1" vertex="1">
          <mxGeometry x="409.75" y="2060" width="151" height="50" as="geometry" />
        </mxCell>
        <mxCell id="_lU7bbWi_hCYTLzxq-Pw-114" value="&lt;font style=&quot;font-size: 18px;&quot;&gt;Nums이&lt;br&gt;빈칸인가?&lt;/font&gt;" style="rhombus;whiteSpace=wrap;html=1;" parent="1" vertex="1">
          <mxGeometry x="658" y="1850" width="155" height="80" as="geometry" />
        </mxCell>
        <mxCell id="_lU7bbWi_hCYTLzxq-Pw-115" value="&lt;font style=&quot;font-size: 18px;&quot;&gt;double k=10&lt;/font&gt;" style="rounded=0;whiteSpace=wrap;html=1;" parent="1" vertex="1">
          <mxGeometry x="662" y="1970" width="151" height="50" as="geometry" />
        </mxCell>
        <mxCell id="_lU7bbWi_hCYTLzxq-Pw-116" value="&lt;span style=&quot;font-size: 18px;&quot;&gt;NumLength&amp;gt;1&lt;/span&gt;" style="rhombus;whiteSpace=wrap;html=1;" parent="1" vertex="1">
          <mxGeometry x="660" y="2050" width="155" height="80" as="geometry" />
        </mxCell>
        <mxCell id="_lU7bbWi_hCYTLzxq-Pw-117" value="&lt;font style=&quot;font-size: 18px;&quot;&gt;double num1, num2&lt;/font&gt;" style="rounded=0;whiteSpace=wrap;html=1;" parent="1" vertex="1">
          <mxGeometry x="663" y="2160" width="151" height="60" as="geometry" />
        </mxCell>
        <mxCell id="_lU7bbWi_hCYTLzxq-Pw-118" value="&lt;font style=&quot;font-size: 18px;&quot;&gt;Pop(&amp;amp;Operand_Stack&lt;br&gt;,&amp;amp;num1)&lt;/font&gt;" style="rounded=0;whiteSpace=wrap;html=1;" parent="1" vertex="1">
          <mxGeometry x="629.25" y="2250" width="220" height="58" as="geometry" />
        </mxCell>
        <mxCell id="_lU7bbWi_hCYTLzxq-Pw-119" value="&lt;font style=&quot;font-size: 18px;&quot;&gt;Push(&amp;amp;Operand_Stack&lt;br&gt;,k*num2+num1)&lt;/font&gt;" style="rounded=0;whiteSpace=wrap;html=1;" parent="1" vertex="1">
          <mxGeometry x="629.25" y="2420" width="220" height="58" as="geometry" />
        </mxCell>
        <mxCell id="_lU7bbWi_hCYTLzxq-Pw-120" value="&lt;font style=&quot;font-size: 18px;&quot;&gt;Pop(&amp;amp;Operand_Stack&lt;br&gt;,&amp;amp;num2)&lt;/font&gt;" style="rounded=0;whiteSpace=wrap;html=1;" parent="1" vertex="1">
          <mxGeometry x="629.25" y="2340" width="220" height="58" as="geometry" />
        </mxCell>
        <mxCell id="_lU7bbWi_hCYTLzxq-Pw-121" value="&lt;font style=&quot;font-size: 18px;&quot;&gt;k*=10&lt;br&gt;NumLength--&lt;br&gt;&lt;/font&gt;" style="rounded=0;whiteSpace=wrap;html=1;" parent="1" vertex="1">
          <mxGeometry x="664" y="2500" width="151" height="50" as="geometry" />
        </mxCell>
        <mxCell id="_lU7bbWi_hCYTLzxq-Pw-122" value="&lt;font style=&quot;font-size: 18px;&quot;&gt;NumLength=0&lt;br&gt;&lt;/font&gt;" style="rounded=0;whiteSpace=wrap;html=1;" parent="1" vertex="1">
          <mxGeometry x="662" y="2620" width="151" height="40" as="geometry" />
        </mxCell>
        <mxCell id="_lU7bbWi_hCYTLzxq-Pw-123" value="" style="endArrow=none;html=1;rounded=0;entryX=0.5;entryY=1;entryDx=0;entryDy=0;exitX=0.5;exitY=0;exitDx=0;exitDy=0;" parent="1" source="_lU7bbWi_hCYTLzxq-Pw-111" target="_lU7bbWi_hCYTLzxq-Pw-109" edge="1">
          <mxGeometry width="50" height="50" relative="1" as="geometry">
            <mxPoint x="639" y="2050" as="sourcePoint" />
            <mxPoint x="689" y="2000" as="targetPoint" />
          </mxGeometry>
        </mxCell>
        <mxCell id="_lU7bbWi_hCYTLzxq-Pw-124" value="T" style="endArrow=classic;html=1;rounded=0;exitX=0.5;exitY=1;exitDx=0;exitDy=0;entryX=0.5;entryY=0;entryDx=0;entryDy=0;" parent="1" source="_lU7bbWi_hCYTLzxq-Pw-111" target="_lU7bbWi_hCYTLzxq-Pw-112" edge="1">
          <mxGeometry width="50" height="50" relative="1" as="geometry">
            <mxPoint x="639" y="2050" as="sourcePoint" />
            <mxPoint x="689" y="2000" as="targetPoint" />
          </mxGeometry>
        </mxCell>
        <mxCell id="_lU7bbWi_hCYTLzxq-Pw-125" value="F" style="endArrow=classic;html=1;rounded=0;exitX=1;exitY=0.5;exitDx=0;exitDy=0;entryX=0;entryY=0.5;entryDx=0;entryDy=0;" parent="1" source="_lU7bbWi_hCYTLzxq-Pw-111" target="_lU7bbWi_hCYTLzxq-Pw-114" edge="1">
          <mxGeometry width="50" height="50" relative="1" as="geometry">
            <mxPoint x="639" y="2050" as="sourcePoint" />
            <mxPoint x="689" y="2000" as="targetPoint" />
          </mxGeometry>
        </mxCell>
        <mxCell id="_lU7bbWi_hCYTLzxq-Pw-126" value="T" style="endArrow=classic;html=1;rounded=0;exitX=0.5;exitY=1;exitDx=0;exitDy=0;entryX=0.5;entryY=0;entryDx=0;entryDy=0;" parent="1" source="_lU7bbWi_hCYTLzxq-Pw-114" target="_lU7bbWi_hCYTLzxq-Pw-115" edge="1">
          <mxGeometry width="50" height="50" relative="1" as="geometry">
            <mxPoint x="494" y="1940" as="sourcePoint" />
            <mxPoint x="495" y="1980" as="targetPoint" />
          </mxGeometry>
        </mxCell>
        <mxCell id="_lU7bbWi_hCYTLzxq-Pw-127" value="" style="endArrow=classic;html=1;rounded=0;exitX=0.5;exitY=1;exitDx=0;exitDy=0;entryX=0.5;entryY=0;entryDx=0;entryDy=0;" parent="1" source="_lU7bbWi_hCYTLzxq-Pw-112" target="_lU7bbWi_hCYTLzxq-Pw-113" edge="1">
          <mxGeometry width="50" height="50" relative="1" as="geometry">
            <mxPoint x="529" y="2040" as="sourcePoint" />
            <mxPoint x="579" y="1990" as="targetPoint" />
          </mxGeometry>
        </mxCell>
        <mxCell id="_lU7bbWi_hCYTLzxq-Pw-128" value="" style="endArrow=classic;html=1;rounded=0;exitX=0.5;exitY=1;exitDx=0;exitDy=0;entryX=0.5;entryY=0;entryDx=0;entryDy=0;" parent="1" source="_lU7bbWi_hCYTLzxq-Pw-115" target="_lU7bbWi_hCYTLzxq-Pw-116" edge="1">
          <mxGeometry width="50" height="50" relative="1" as="geometry">
            <mxPoint x="495" y="2038" as="sourcePoint" />
            <mxPoint x="495" y="2070" as="targetPoint" />
          </mxGeometry>
        </mxCell>
        <mxCell id="_lU7bbWi_hCYTLzxq-Pw-129" value="T" style="endArrow=classic;html=1;rounded=0;exitX=0.5;exitY=1;exitDx=0;exitDy=0;entryX=0.5;entryY=0;entryDx=0;entryDy=0;" parent="1" source="_lU7bbWi_hCYTLzxq-Pw-116" target="_lU7bbWi_hCYTLzxq-Pw-117" edge="1">
          <mxGeometry width="50" height="50" relative="1" as="geometry">
            <mxPoint x="495" y="2038" as="sourcePoint" />
            <mxPoint x="495" y="2070" as="targetPoint" />
          </mxGeometry>
        </mxCell>
        <mxCell id="_lU7bbWi_hCYTLzxq-Pw-131" value="" style="endArrow=classic;html=1;rounded=0;exitX=0.5;exitY=1;exitDx=0;exitDy=0;entryX=0.5;entryY=0;entryDx=0;entryDy=0;" parent="1" source="_lU7bbWi_hCYTLzxq-Pw-117" target="_lU7bbWi_hCYTLzxq-Pw-118" edge="1">
          <mxGeometry width="50" height="50" relative="1" as="geometry">
            <mxPoint x="495" y="2038" as="sourcePoint" />
            <mxPoint x="495" y="2070" as="targetPoint" />
          </mxGeometry>
        </mxCell>
        <mxCell id="_lU7bbWi_hCYTLzxq-Pw-133" value="" style="endArrow=classic;html=1;rounded=0;exitX=0.5;exitY=1;exitDx=0;exitDy=0;entryX=0.5;entryY=0;entryDx=0;entryDy=0;" parent="1" source="_lU7bbWi_hCYTLzxq-Pw-118" target="_lU7bbWi_hCYTLzxq-Pw-120" edge="1">
          <mxGeometry width="50" height="50" relative="1" as="geometry">
            <mxPoint x="505" y="2048" as="sourcePoint" />
            <mxPoint x="505" y="2080" as="targetPoint" />
          </mxGeometry>
        </mxCell>
        <mxCell id="_lU7bbWi_hCYTLzxq-Pw-134" value="" style="endArrow=classic;html=1;rounded=0;exitX=0.5;exitY=1;exitDx=0;exitDy=0;entryX=0.5;entryY=0;entryDx=0;entryDy=0;" parent="1" source="_lU7bbWi_hCYTLzxq-Pw-120" target="_lU7bbWi_hCYTLzxq-Pw-119" edge="1">
          <mxGeometry width="50" height="50" relative="1" as="geometry">
            <mxPoint x="515" y="2058" as="sourcePoint" />
            <mxPoint x="515" y="2090" as="targetPoint" />
          </mxGeometry>
        </mxCell>
        <mxCell id="_lU7bbWi_hCYTLzxq-Pw-135" value="" style="endArrow=classic;html=1;rounded=0;exitX=0.5;exitY=1;exitDx=0;exitDy=0;entryX=0.5;entryY=0;entryDx=0;entryDy=0;" parent="1" source="_lU7bbWi_hCYTLzxq-Pw-119" target="_lU7bbWi_hCYTLzxq-Pw-121" edge="1">
          <mxGeometry width="50" height="50" relative="1" as="geometry">
            <mxPoint x="525" y="2068" as="sourcePoint" />
            <mxPoint x="525" y="2100" as="targetPoint" />
          </mxGeometry>
        </mxCell>
        <mxCell id="_lU7bbWi_hCYTLzxq-Pw-136" value="" style="endArrow=classic;html=1;rounded=0;exitX=0.5;exitY=1;exitDx=0;exitDy=0;entryX=0;entryY=0.5;entryDx=0;entryDy=0;" parent="1" source="_lU7bbWi_hCYTLzxq-Pw-121" target="_lU7bbWi_hCYTLzxq-Pw-116" edge="1">
          <mxGeometry width="50" height="50" relative="1" as="geometry">
            <mxPoint x="535" y="2078" as="sourcePoint" />
            <mxPoint x="535" y="2110" as="targetPoint" />
            <Array as="points">
              <mxPoint x="740" y="2580" />
              <mxPoint x="609" y="2580" />
              <mxPoint x="599" y="2090" />
            </Array>
          </mxGeometry>
        </mxCell>
        <mxCell id="_lU7bbWi_hCYTLzxq-Pw-137" value="F" style="endArrow=classic;html=1;rounded=0;exitX=1;exitY=0.5;exitDx=0;exitDy=0;entryX=0.5;entryY=0;entryDx=0;entryDy=0;" parent="1" source="_lU7bbWi_hCYTLzxq-Pw-116" target="_lU7bbWi_hCYTLzxq-Pw-122" edge="1">
          <mxGeometry width="50" height="50" relative="1" as="geometry">
            <mxPoint x="819" y="2330" as="sourcePoint" />
            <mxPoint x="869" y="2280" as="targetPoint" />
            <Array as="points">
              <mxPoint x="859" y="2090" />
              <mxPoint x="859" y="2600" />
              <mxPoint x="738" y="2600" />
            </Array>
          </mxGeometry>
        </mxCell>
        <mxCell id="_lU7bbWi_hCYTLzxq-Pw-138" value="F" style="endArrow=classic;html=1;rounded=0;exitX=1;exitY=0.5;exitDx=0;exitDy=0;entryX=0;entryY=0.5;entryDx=0;entryDy=0;" parent="1" source="_lU7bbWi_hCYTLzxq-Pw-114" target="_lU7bbWi_hCYTLzxq-Pw-139" edge="1">
          <mxGeometry width="50" height="50" relative="1" as="geometry">
            <mxPoint x="869" y="2230" as="sourcePoint" />
            <mxPoint x="899" y="1890" as="targetPoint" />
          </mxGeometry>
        </mxCell>
        <mxCell id="_lU7bbWi_hCYTLzxq-Pw-139" value="&lt;font style=&quot;font-size: 18px;&quot;&gt;NumLength=0&lt;br&gt;&lt;/font&gt;" style="rounded=0;whiteSpace=wrap;html=1;" parent="1" vertex="1">
          <mxGeometry x="909.25" y="1870" width="151" height="40" as="geometry" />
        </mxCell>
        <mxCell id="_lU7bbWi_hCYTLzxq-Pw-140" value="&lt;font style=&quot;font-size: 18px;&quot;&gt;Nums&lt;br&gt;== *&lt;br&gt;&lt;/font&gt;" style="rhombus;whiteSpace=wrap;html=1;" parent="1" vertex="1">
          <mxGeometry x="907.25" y="1959" width="155" height="80" as="geometry" />
        </mxCell>
        <mxCell id="_lU7bbWi_hCYTLzxq-Pw-141" value="&lt;font style=&quot;font-size: 18px;&quot;&gt;Nums&lt;br&gt;== /&lt;br&gt;&lt;/font&gt;" style="rhombus;whiteSpace=wrap;html=1;" parent="1" vertex="1">
          <mxGeometry x="1179.25" y="1959" width="155" height="80" as="geometry" />
        </mxCell>
        <mxCell id="_lU7bbWi_hCYTLzxq-Pw-142" value="&lt;font style=&quot;font-size: 18px;&quot;&gt;Nums&lt;br&gt;== +&lt;br&gt;&lt;/font&gt;" style="rhombus;whiteSpace=wrap;html=1;" parent="1" vertex="1">
          <mxGeometry x="1459.25" y="1959" width="155" height="80" as="geometry" />
        </mxCell>
        <mxCell id="_lU7bbWi_hCYTLzxq-Pw-143" value="" style="endArrow=classic;html=1;rounded=0;exitX=0.5;exitY=1;exitDx=0;exitDy=0;entryX=0.5;entryY=0;entryDx=0;entryDy=0;" parent="1" source="_lU7bbWi_hCYTLzxq-Pw-139" target="_lU7bbWi_hCYTLzxq-Pw-140" edge="1">
          <mxGeometry width="50" height="50" relative="1" as="geometry">
            <mxPoint x="1019" y="2140" as="sourcePoint" />
            <mxPoint x="1069" y="2090" as="targetPoint" />
          </mxGeometry>
        </mxCell>
        <mxCell id="_lU7bbWi_hCYTLzxq-Pw-144" value="&lt;font style=&quot;font-size: 18px;&quot;&gt;double &lt;br&gt;num1, num2&lt;/font&gt;" style="rounded=0;whiteSpace=wrap;html=1;" parent="1" vertex="1">
          <mxGeometry x="909.25" y="2065" width="151" height="50" as="geometry" />
        </mxCell>
        <mxCell id="_lU7bbWi_hCYTLzxq-Pw-149" value="&lt;font style=&quot;font-size: 18px;&quot;&gt;Pop(&amp;amp;Operand_Stack&lt;br&gt;,&amp;amp;num1)&lt;/font&gt;" style="rounded=0;whiteSpace=wrap;html=1;" parent="1" vertex="1">
          <mxGeometry x="874.75" y="2140" width="220" height="58" as="geometry" />
        </mxCell>
        <mxCell id="_lU7bbWi_hCYTLzxq-Pw-150" value="&lt;font style=&quot;font-size: 18px;&quot;&gt;Push(&amp;amp;Operand_Stack&lt;br&gt;,num1*num2)&lt;/font&gt;" style="rounded=0;whiteSpace=wrap;html=1;" parent="1" vertex="1">
          <mxGeometry x="874.75" y="2310" width="220" height="58" as="geometry" />
        </mxCell>
        <mxCell id="_lU7bbWi_hCYTLzxq-Pw-151" value="&lt;font style=&quot;font-size: 18px;&quot;&gt;Pop(&amp;amp;Operand_Stack&lt;br&gt;,&amp;amp;num2)&lt;/font&gt;" style="rounded=0;whiteSpace=wrap;html=1;" parent="1" vertex="1">
          <mxGeometry x="874.75" y="2230" width="220" height="58" as="geometry" />
        </mxCell>
        <mxCell id="_lU7bbWi_hCYTLzxq-Pw-152" value="" style="endArrow=classic;html=1;rounded=0;exitX=0.5;exitY=1;exitDx=0;exitDy=0;entryX=0.5;entryY=0;entryDx=0;entryDy=0;" parent="1" source="_lU7bbWi_hCYTLzxq-Pw-149" target="_lU7bbWi_hCYTLzxq-Pw-151" edge="1">
          <mxGeometry width="50" height="50" relative="1" as="geometry">
            <mxPoint x="750.5" y="1938" as="sourcePoint" />
            <mxPoint x="750.5" y="1970" as="targetPoint" />
          </mxGeometry>
        </mxCell>
        <mxCell id="_lU7bbWi_hCYTLzxq-Pw-153" value="" style="endArrow=classic;html=1;rounded=0;exitX=0.5;exitY=1;exitDx=0;exitDy=0;entryX=0.5;entryY=0;entryDx=0;entryDy=0;" parent="1" source="_lU7bbWi_hCYTLzxq-Pw-151" target="_lU7bbWi_hCYTLzxq-Pw-150" edge="1">
          <mxGeometry width="50" height="50" relative="1" as="geometry">
            <mxPoint x="760.5" y="1948" as="sourcePoint" />
            <mxPoint x="760.5" y="1980" as="targetPoint" />
          </mxGeometry>
        </mxCell>
        <mxCell id="_lU7bbWi_hCYTLzxq-Pw-154" value="T" style="endArrow=classic;html=1;rounded=0;exitX=0.5;exitY=1;exitDx=0;exitDy=0;entryX=0.5;entryY=0;entryDx=0;entryDy=0;" parent="1" source="_lU7bbWi_hCYTLzxq-Pw-140" target="_lU7bbWi_hCYTLzxq-Pw-144" edge="1">
          <mxGeometry width="50" height="50" relative="1" as="geometry">
            <mxPoint x="995" y="1920" as="sourcePoint" />
            <mxPoint x="995" y="1969" as="targetPoint" />
          </mxGeometry>
        </mxCell>
        <mxCell id="_lU7bbWi_hCYTLzxq-Pw-155" value="" style="endArrow=classic;html=1;rounded=0;exitX=0.5;exitY=1;exitDx=0;exitDy=0;entryX=0.5;entryY=0;entryDx=0;entryDy=0;" parent="1" source="_lU7bbWi_hCYTLzxq-Pw-144" target="_lU7bbWi_hCYTLzxq-Pw-149" edge="1">
          <mxGeometry width="50" height="50" relative="1" as="geometry">
            <mxPoint x="995" y="1920" as="sourcePoint" />
            <mxPoint x="995" y="1969" as="targetPoint" />
          </mxGeometry>
        </mxCell>
        <mxCell id="_lU7bbWi_hCYTLzxq-Pw-156" value="F" style="endArrow=classic;html=1;rounded=0;exitX=1;exitY=0.5;exitDx=0;exitDy=0;entryX=0;entryY=0.5;entryDx=0;entryDy=0;" parent="1" source="_lU7bbWi_hCYTLzxq-Pw-140" target="_lU7bbWi_hCYTLzxq-Pw-141" edge="1">
          <mxGeometry width="50" height="50" relative="1" as="geometry">
            <mxPoint x="1039" y="2330" as="sourcePoint" />
            <mxPoint x="1089" y="2280" as="targetPoint" />
          </mxGeometry>
        </mxCell>
        <mxCell id="_lU7bbWi_hCYTLzxq-Pw-157" value="T" style="endArrow=classic;html=1;rounded=0;exitX=0.5;exitY=1;exitDx=0;exitDy=0;entryX=0.5;entryY=0;entryDx=0;entryDy=0;" parent="1" source="_lU7bbWi_hCYTLzxq-Pw-141" target="_lU7bbWi_hCYTLzxq-Pw-158" edge="1">
          <mxGeometry width="50" height="50" relative="1" as="geometry">
            <mxPoint x="1049" y="2510" as="sourcePoint" />
            <mxPoint x="1099" y="2460" as="targetPoint" />
          </mxGeometry>
        </mxCell>
        <mxCell id="_lU7bbWi_hCYTLzxq-Pw-158" value="&lt;font style=&quot;font-size: 18px;&quot;&gt;double &lt;br&gt;num1, num2&lt;/font&gt;" style="rounded=0;whiteSpace=wrap;html=1;" parent="1" vertex="1">
          <mxGeometry x="1181.25" y="2065" width="151" height="50" as="geometry" />
        </mxCell>
        <mxCell id="_lU7bbWi_hCYTLzxq-Pw-159" value="&lt;font style=&quot;font-size: 18px;&quot;&gt;Pop(&amp;amp;Operand_Stack&lt;br&gt;,&amp;amp;num1)&lt;/font&gt;" style="rounded=0;whiteSpace=wrap;html=1;" parent="1" vertex="1">
          <mxGeometry x="1146.75" y="2140" width="220" height="58" as="geometry" />
        </mxCell>
        <mxCell id="_lU7bbWi_hCYTLzxq-Pw-160" value="&lt;font style=&quot;font-size: 18px;&quot;&gt;Push(&amp;amp;Operand_Stack&lt;br&gt;,num1/num2)&lt;/font&gt;" style="rounded=0;whiteSpace=wrap;html=1;" parent="1" vertex="1">
          <mxGeometry x="1146.75" y="2310" width="220" height="58" as="geometry" />
        </mxCell>
        <mxCell id="_lU7bbWi_hCYTLzxq-Pw-161" value="&lt;font style=&quot;font-size: 18px;&quot;&gt;Pop(&amp;amp;Operand_Stack&lt;br&gt;,&amp;amp;num2)&lt;/font&gt;" style="rounded=0;whiteSpace=wrap;html=1;" parent="1" vertex="1">
          <mxGeometry x="1146.75" y="2230" width="220" height="58" as="geometry" />
        </mxCell>
        <mxCell id="_lU7bbWi_hCYTLzxq-Pw-162" value="" style="endArrow=classic;html=1;rounded=0;exitX=0.5;exitY=1;exitDx=0;exitDy=0;entryX=0.5;entryY=0;entryDx=0;entryDy=0;" parent="1" source="_lU7bbWi_hCYTLzxq-Pw-159" target="_lU7bbWi_hCYTLzxq-Pw-161" edge="1">
          <mxGeometry width="50" height="50" relative="1" as="geometry">
            <mxPoint x="1022.5" y="1938" as="sourcePoint" />
            <mxPoint x="1022.5" y="1970" as="targetPoint" />
          </mxGeometry>
        </mxCell>
        <mxCell id="_lU7bbWi_hCYTLzxq-Pw-163" value="" style="endArrow=classic;html=1;rounded=0;exitX=0.5;exitY=1;exitDx=0;exitDy=0;entryX=0.5;entryY=0;entryDx=0;entryDy=0;" parent="1" source="_lU7bbWi_hCYTLzxq-Pw-161" target="_lU7bbWi_hCYTLzxq-Pw-160" edge="1">
          <mxGeometry width="50" height="50" relative="1" as="geometry">
            <mxPoint x="1032.5" y="1948" as="sourcePoint" />
            <mxPoint x="1032.5" y="1980" as="targetPoint" />
          </mxGeometry>
        </mxCell>
        <mxCell id="_lU7bbWi_hCYTLzxq-Pw-164" value="" style="endArrow=classic;html=1;rounded=0;exitX=0.5;exitY=1;exitDx=0;exitDy=0;entryX=0.5;entryY=0;entryDx=0;entryDy=0;" parent="1" source="_lU7bbWi_hCYTLzxq-Pw-158" target="_lU7bbWi_hCYTLzxq-Pw-159" edge="1">
          <mxGeometry width="50" height="50" relative="1" as="geometry">
            <mxPoint x="1267" y="1920" as="sourcePoint" />
            <mxPoint x="1267" y="1969" as="targetPoint" />
          </mxGeometry>
        </mxCell>
        <mxCell id="_lU7bbWi_hCYTLzxq-Pw-165" value="F" style="endArrow=classic;html=1;rounded=0;exitX=1;exitY=0.5;exitDx=0;exitDy=0;entryX=0;entryY=0.5;entryDx=0;entryDy=0;" parent="1" source="_lU7bbWi_hCYTLzxq-Pw-141" target="_lU7bbWi_hCYTLzxq-Pw-142" edge="1">
          <mxGeometry width="50" height="50" relative="1" as="geometry">
            <mxPoint x="1072" y="2009" as="sourcePoint" />
            <mxPoint x="1189" y="2009" as="targetPoint" />
          </mxGeometry>
        </mxCell>
        <mxCell id="_lU7bbWi_hCYTLzxq-Pw-166" value="T" style="endArrow=classic;html=1;rounded=0;exitX=0.5;exitY=1;exitDx=0;exitDy=0;entryX=0.5;entryY=0;entryDx=0;entryDy=0;" parent="1" source="_lU7bbWi_hCYTLzxq-Pw-142" target="_lU7bbWi_hCYTLzxq-Pw-167" edge="1">
          <mxGeometry width="50" height="50" relative="1" as="geometry">
            <mxPoint x="1529.25" y="2065" as="sourcePoint" />
            <mxPoint x="1371.25" y="2486" as="targetPoint" />
          </mxGeometry>
        </mxCell>
        <mxCell id="_lU7bbWi_hCYTLzxq-Pw-167" value="&lt;font style=&quot;font-size: 18px;&quot;&gt;double &lt;br&gt;num1, num2&lt;/font&gt;" style="rounded=0;whiteSpace=wrap;html=1;" parent="1" vertex="1">
          <mxGeometry x="1461.25" y="2065" width="151" height="50" as="geometry" />
        </mxCell>
        <mxCell id="_lU7bbWi_hCYTLzxq-Pw-168" value="&lt;font style=&quot;font-size: 18px;&quot;&gt;Pop(&amp;amp;Operand_Stack&lt;br&gt;,&amp;amp;num1)&lt;/font&gt;" style="rounded=0;whiteSpace=wrap;html=1;" parent="1" vertex="1">
          <mxGeometry x="1426.75" y="2140" width="220" height="58" as="geometry" />
        </mxCell>
        <mxCell id="_lU7bbWi_hCYTLzxq-Pw-169" value="&lt;font style=&quot;font-size: 18px;&quot;&gt;Push(&amp;amp;Operand_Stack&lt;br&gt;,num1/num2)&lt;/font&gt;" style="rounded=0;whiteSpace=wrap;html=1;" parent="1" vertex="1">
          <mxGeometry x="1426.75" y="2310" width="220" height="58" as="geometry" />
        </mxCell>
        <mxCell id="_lU7bbWi_hCYTLzxq-Pw-170" value="&lt;font style=&quot;font-size: 18px;&quot;&gt;Pop(&amp;amp;Operand_Stack&lt;br&gt;,&amp;amp;num2)&lt;/font&gt;" style="rounded=0;whiteSpace=wrap;html=1;" parent="1" vertex="1">
          <mxGeometry x="1426.75" y="2230" width="220" height="58" as="geometry" />
        </mxCell>
        <mxCell id="_lU7bbWi_hCYTLzxq-Pw-171" value="" style="endArrow=classic;html=1;rounded=0;exitX=0.5;exitY=1;exitDx=0;exitDy=0;entryX=0.5;entryY=0;entryDx=0;entryDy=0;" parent="1" source="_lU7bbWi_hCYTLzxq-Pw-168" target="_lU7bbWi_hCYTLzxq-Pw-170" edge="1">
          <mxGeometry width="50" height="50" relative="1" as="geometry">
            <mxPoint x="1302.5" y="1938" as="sourcePoint" />
            <mxPoint x="1302.5" y="1970" as="targetPoint" />
          </mxGeometry>
        </mxCell>
        <mxCell id="_lU7bbWi_hCYTLzxq-Pw-172" value="" style="endArrow=classic;html=1;rounded=0;exitX=0.5;exitY=1;exitDx=0;exitDy=0;entryX=0.5;entryY=0;entryDx=0;entryDy=0;" parent="1" source="_lU7bbWi_hCYTLzxq-Pw-170" target="_lU7bbWi_hCYTLzxq-Pw-169" edge="1">
          <mxGeometry width="50" height="50" relative="1" as="geometry">
            <mxPoint x="1312.5" y="1948" as="sourcePoint" />
            <mxPoint x="1312.5" y="1980" as="targetPoint" />
          </mxGeometry>
        </mxCell>
        <mxCell id="_lU7bbWi_hCYTLzxq-Pw-173" value="" style="endArrow=classic;html=1;rounded=0;exitX=0.5;exitY=1;exitDx=0;exitDy=0;entryX=0.5;entryY=0;entryDx=0;entryDy=0;" parent="1" source="_lU7bbWi_hCYTLzxq-Pw-167" target="_lU7bbWi_hCYTLzxq-Pw-168" edge="1">
          <mxGeometry width="50" height="50" relative="1" as="geometry">
            <mxPoint x="1547" y="1920" as="sourcePoint" />
            <mxPoint x="1547" y="1969" as="targetPoint" />
          </mxGeometry>
        </mxCell>
        <mxCell id="_lU7bbWi_hCYTLzxq-Pw-174" value="F" style="endArrow=classic;html=1;rounded=0;exitX=1;exitY=0.5;exitDx=0;exitDy=0;entryX=0.5;entryY=0;entryDx=0;entryDy=0;" parent="1" source="_lU7bbWi_hCYTLzxq-Pw-142" target="_lU7bbWi_hCYTLzxq-Pw-175" edge="1">
          <mxGeometry width="50" height="50" relative="1" as="geometry">
            <mxPoint x="1344" y="2009" as="sourcePoint" />
            <mxPoint x="1739" y="2060" as="targetPoint" />
            <Array as="points">
              <mxPoint x="1789" y="1999" />
            </Array>
          </mxGeometry>
        </mxCell>
        <mxCell id="_lU7bbWi_hCYTLzxq-Pw-175" value="&lt;font style=&quot;font-size: 18px;&quot;&gt;double &lt;br&gt;num1, num2&lt;/font&gt;" style="rounded=0;whiteSpace=wrap;html=1;" parent="1" vertex="1">
          <mxGeometry x="1713.5" y="2060" width="151" height="50" as="geometry" />
        </mxCell>
        <mxCell id="_lU7bbWi_hCYTLzxq-Pw-176" value="&lt;font style=&quot;font-size: 18px;&quot;&gt;Pop(&amp;amp;Operand_Stack&lt;br&gt;,&amp;amp;num1)&lt;/font&gt;" style="rounded=0;whiteSpace=wrap;html=1;" parent="1" vertex="1">
          <mxGeometry x="1679" y="2135" width="220" height="58" as="geometry" />
        </mxCell>
        <mxCell id="_lU7bbWi_hCYTLzxq-Pw-177" value="&lt;font style=&quot;font-size: 18px;&quot;&gt;Push(&amp;amp;Operand_Stack&lt;br&gt;,num1/num2)&lt;/font&gt;" style="rounded=0;whiteSpace=wrap;html=1;" parent="1" vertex="1">
          <mxGeometry x="1679" y="2305" width="220" height="58" as="geometry" />
        </mxCell>
        <mxCell id="_lU7bbWi_hCYTLzxq-Pw-178" value="&lt;font style=&quot;font-size: 18px;&quot;&gt;Pop(&amp;amp;Operand_Stack&lt;br&gt;,&amp;amp;num2)&lt;/font&gt;" style="rounded=0;whiteSpace=wrap;html=1;" parent="1" vertex="1">
          <mxGeometry x="1679" y="2225" width="220" height="58" as="geometry" />
        </mxCell>
        <mxCell id="_lU7bbWi_hCYTLzxq-Pw-179" value="" style="endArrow=classic;html=1;rounded=0;exitX=0.5;exitY=1;exitDx=0;exitDy=0;entryX=0.5;entryY=0;entryDx=0;entryDy=0;" parent="1" source="_lU7bbWi_hCYTLzxq-Pw-176" target="_lU7bbWi_hCYTLzxq-Pw-178" edge="1">
          <mxGeometry width="50" height="50" relative="1" as="geometry">
            <mxPoint x="1554.75" y="1933" as="sourcePoint" />
            <mxPoint x="1554.75" y="1965" as="targetPoint" />
          </mxGeometry>
        </mxCell>
        <mxCell id="_lU7bbWi_hCYTLzxq-Pw-180" value="" style="endArrow=classic;html=1;rounded=0;exitX=0.5;exitY=1;exitDx=0;exitDy=0;entryX=0.5;entryY=0;entryDx=0;entryDy=0;" parent="1" source="_lU7bbWi_hCYTLzxq-Pw-178" target="_lU7bbWi_hCYTLzxq-Pw-177" edge="1">
          <mxGeometry width="50" height="50" relative="1" as="geometry">
            <mxPoint x="1564.75" y="1943" as="sourcePoint" />
            <mxPoint x="1564.75" y="1975" as="targetPoint" />
          </mxGeometry>
        </mxCell>
        <mxCell id="_lU7bbWi_hCYTLzxq-Pw-181" value="" style="endArrow=classic;html=1;rounded=0;exitX=0.5;exitY=1;exitDx=0;exitDy=0;entryX=0.5;entryY=0;entryDx=0;entryDy=0;" parent="1" source="_lU7bbWi_hCYTLzxq-Pw-175" target="_lU7bbWi_hCYTLzxq-Pw-176" edge="1">
          <mxGeometry width="50" height="50" relative="1" as="geometry">
            <mxPoint x="1799.25" y="1915" as="sourcePoint" />
            <mxPoint x="1799.25" y="1964" as="targetPoint" />
          </mxGeometry>
        </mxCell>
        <mxCell id="_lU7bbWi_hCYTLzxq-Pw-182" value="" style="shape=loopLimit;whiteSpace=wrap;html=1;rotation=-180;" parent="1" vertex="1">
          <mxGeometry x="362.75" y="2710" width="245" height="50" as="geometry" />
        </mxCell>
        <mxCell id="_lU7bbWi_hCYTLzxq-Pw-183" value="" style="endArrow=none;html=1;rounded=0;exitX=0.5;exitY=1;exitDx=0;exitDy=0;entryX=0.5;entryY=1;entryDx=0;entryDy=0;" parent="1" source="_lU7bbWi_hCYTLzxq-Pw-113" target="_lU7bbWi_hCYTLzxq-Pw-182" edge="1">
          <mxGeometry width="50" height="50" relative="1" as="geometry">
            <mxPoint x="529" y="2210" as="sourcePoint" />
            <mxPoint x="579" y="2160" as="targetPoint" />
          </mxGeometry>
        </mxCell>
        <mxCell id="_lU7bbWi_hCYTLzxq-Pw-186" value="" style="endArrow=none;html=1;rounded=0;exitX=0.5;exitY=1;exitDx=0;exitDy=0;" parent="1" source="_lU7bbWi_hCYTLzxq-Pw-122" edge="1">
          <mxGeometry width="50" height="50" relative="1" as="geometry">
            <mxPoint x="495" y="2120" as="sourcePoint" />
            <mxPoint x="738" y="2700" as="targetPoint" />
          </mxGeometry>
        </mxCell>
        <mxCell id="_lU7bbWi_hCYTLzxq-Pw-187" value="" style="endArrow=none;html=1;rounded=0;exitX=0.5;exitY=1;exitDx=0;exitDy=0;" parent="1" source="_lU7bbWi_hCYTLzxq-Pw-150" edge="1">
          <mxGeometry width="50" height="50" relative="1" as="geometry">
            <mxPoint x="748" y="2670" as="sourcePoint" />
            <mxPoint x="985" y="2700" as="targetPoint" />
          </mxGeometry>
        </mxCell>
        <mxCell id="_lU7bbWi_hCYTLzxq-Pw-188" value="" style="endArrow=none;html=1;rounded=0;exitX=0.5;exitY=1;exitDx=0;exitDy=0;" parent="1" source="_lU7bbWi_hCYTLzxq-Pw-160" edge="1">
          <mxGeometry width="50" height="50" relative="1" as="geometry">
            <mxPoint x="995" y="2378" as="sourcePoint" />
            <mxPoint x="1257" y="2700" as="targetPoint" />
          </mxGeometry>
        </mxCell>
        <mxCell id="_lU7bbWi_hCYTLzxq-Pw-189" value="" style="endArrow=none;html=1;rounded=0;exitX=0.5;exitY=1;exitDx=0;exitDy=0;" parent="1" edge="1">
          <mxGeometry width="50" height="50" relative="1" as="geometry">
            <mxPoint x="1535.75" y="2368" as="sourcePoint" />
            <mxPoint x="1537.4285714285716" y="2700" as="targetPoint" />
          </mxGeometry>
        </mxCell>
        <mxCell id="_lU7bbWi_hCYTLzxq-Pw-190" value="" style="endArrow=none;html=1;rounded=0;exitX=0.5;exitY=1;exitDx=0;exitDy=0;" parent="1" source="_lU7bbWi_hCYTLzxq-Pw-177" edge="1">
          <mxGeometry width="50" height="50" relative="1" as="geometry">
            <mxPoint x="1545.75" y="2378" as="sourcePoint" />
            <mxPoint x="1789" y="2700" as="targetPoint" />
          </mxGeometry>
        </mxCell>
        <mxCell id="_lU7bbWi_hCYTLzxq-Pw-191" value="" style="endArrow=none;html=1;rounded=0;" parent="1" edge="1">
          <mxGeometry width="50" height="50" relative="1" as="geometry">
            <mxPoint x="1786" y="2700" as="sourcePoint" />
            <mxPoint x="486" y="2700" as="targetPoint" />
          </mxGeometry>
        </mxCell>
      </root>
    </mxGraphModel>
  </diagram>
</mxfile>
